<?xml version="1.0" standalone="no"?>
<!DOCTYPE svg PUBLIC "-//W3C//DTD SVG 20010904//EN"
 "http://www.w3.org/TR/2001/REC-SVG-20010904/DTD/svg10.dtd">
<svg version="1.0" xmlns="http://www.w3.org/2000/svg"
 width="331.000000pt" height="331.000000pt" viewBox="0 0 331.000000 331.000000"
 preserveAspectRatio="xMidYMid meet">
<metadata>
Created by potrace 1.14, written by Peter Selinger 2001-2017
</metadata>
<g transform="translate(0.000000,331.000000) scale(0.100000,-0.100000)"
fill="#000000" stroke="none">
<path d="M1228 3305 c-2 -2 -64 -6 -138 -9 -74 -4 -148 -9 -165 -11 -16 -2
-55 -6 -85 -10 -79 -8 -163 -26 -178 -37 -19 -16 -16 -1112 3 -1219 37 -210
131 -390 282 -542 150 -151 376 -261 578 -282 33 -4 62 -9 65 -12 11 -10 6
-983 -4 -984 -6 0 -74 -2 -151 -4 -331 -8 -502 -19 -641 -41 -115 -17 -144
-28 -144 -53 0 -30 21 -41 110 -56 184 -29 400 -39 895 -39 446 0 582 5 811
29 89 10 155 24 172 37 15 13 16 44 1 53 -19 13 -123 33 -204 40 -144 14 -371
26 -565 30 -74 2 -142 4 -150 4 -14 1 -16 56 -17 491 0 270 2 492 6 494 3 2
33 7 66 10 144 16 334 90 459 180 67 49 167 146 219 216 84 112 164 301 185
440 16 103 16 1195 0 1208 -26 20 -131 35 -413 58 -63 5 -992 13 -997 9z"/>
</g>
</svg>
